<svg xmlns="http://www.w3.org/2000/svg" xmlns:xlink="http://www.w3.org/1999/xlink" width="3998" zoomAndPan="magnify" viewBox="0 0 2998.5 437.999984" height="584" preserveAspectRatio="xMidYMid meet" version="1.0"><defs><g/><clipPath id="8a6225852c"><rect x="0" width="1041" y="0" height="251"/></clipPath></defs><g transform="matrix(1, 0, 0, 1, 129, 97)"><g clip-path="url(#8a6225852c)"><g fill="#2ed573" fill-opacity="1"><g transform="translate(0.952944, 172.804975)"><g><path d="M 29.234375 -121.4375 L 15.703125 -121.4375 C 12.804688 -121.4375 10.796875 -122.203125 9.671875 -123.734375 C 8.617188 -125.347656 8.09375 -128.25 8.09375 -132.4375 C 8.09375 -136.625 8.65625 -139.523438 9.78125 -141.140625 C 10.351562 -142.023438 11.097656 -142.628906 12.015625 -142.953125 C 12.941406 -143.273438 14.171875 -143.4375 15.703125 -143.4375 L 78.546875 -143.4375 C 87.242188 -143.4375 94.914062 -142.367188 101.5625 -140.234375 C 108.207031 -138.097656 113.707031 -134.972656 118.0625 -130.859375 C 125.789062 -123.609375 129.65625 -113.539062 129.65625 -100.65625 C 129.65625 -91.394531 127.15625 -83.820312 122.15625 -77.9375 C 116.925781 -71.738281 109.316406 -67.429688 99.328125 -65.015625 C 102.785156 -63.398438 106.128906 -60.941406 109.359375 -57.640625 C 112.742188 -53.929688 115.925781 -49.421875 118.90625 -44.109375 L 121.203125 -40 L 122.640625 -37.21875 C 124.171875 -34.3125 125.617188 -31.832031 126.984375 -29.78125 C 128.359375 -27.726562 129.851562 -25.976562 131.46875 -24.53125 C 133.320312 -22.832031 135.375 -21.984375 137.625 -21.984375 L 139.921875 -21.984375 C 142.898438 -21.984375 144.914062 -21.257812 145.96875 -19.8125 C 147.007812 -18.207031 147.53125 -15.269531 147.53125 -11 C 147.53125 -6.726562 147.007812 -3.785156 145.96875 -2.171875 C 145.40625 -1.367188 144.640625 -0.804688 143.671875 -0.484375 C 142.703125 -0.160156 141.453125 0 139.921875 0 L 128.5625 0 C 123.8125 0 119.582031 -1.304688 115.875 -3.921875 C 112.175781 -6.546875 108.472656 -10.835938 104.765625 -16.796875 C 102.347656 -20.984375 100.253906 -24.890625 98.484375 -28.515625 C 95.898438 -33.828125 93.117188 -38.703125 90.140625 -43.140625 C 87.003906 -47.804688 83.539062 -51.347656 79.75 -53.765625 C 76.851562 -55.535156 73.628906 -56.664062 70.078125 -57.15625 C 67.421875 -57.632812 64.363281 -57.875 60.90625 -57.875 L 55.34375 -57.875 L 55.34375 -21.984375 L 70.078125 -21.984375 C 71.535156 -21.984375 72.742188 -21.820312 73.703125 -21.5 C 74.671875 -21.1875 75.4375 -20.625 76 -19.8125 C 77.132812 -18.207031 77.703125 -15.269531 77.703125 -11 C 77.703125 -6.726562 77.097656 -3.742188 75.890625 -2.046875 C 74.835938 -0.679688 72.898438 0 70.078125 0 L 15.703125 0 C 14.171875 0 12.941406 -0.160156 12.015625 -0.484375 C 11.097656 -0.804688 10.351562 -1.367188 9.78125 -2.171875 C 8.65625 -3.785156 8.09375 -6.726562 8.09375 -11 C 8.09375 -15.269531 8.65625 -18.207031 9.78125 -19.8125 C 10.351562 -20.625 11.097656 -21.1875 12.015625 -21.5 C 12.941406 -21.820312 14.171875 -21.984375 15.703125 -21.984375 L 29.234375 -21.984375 Z M 75.515625 -80.71875 C 84.785156 -80.71875 91.59375 -82.367188 95.9375 -85.671875 C 100.375 -88.972656 102.59375 -93.96875 102.59375 -100.65625 C 102.59375 -113.945312 93.726562 -120.59375 76 -120.59375 L 55.34375 -120.59375 L 55.34375 -80.71875 Z M 75.515625 -80.71875 "/></g></g><g transform="translate(149.334208, 172.804975)"><g><path d="M 134 -21.984375 C 135.457031 -21.984375 136.664062 -21.820312 137.625 -21.5 C 138.59375 -21.1875 139.359375 -20.625 139.921875 -19.8125 C 141.054688 -18.207031 141.625 -15.269531 141.625 -11 C 141.625 -6.726562 141.054688 -3.785156 139.921875 -2.171875 C 139.359375 -1.367188 138.59375 -0.804688 137.625 -0.484375 C 136.664062 -0.160156 135.457031 0 134 0 L 122.40625 0 C 117.65625 0 113.46875 -0.96875 109.84375 -2.90625 C 105.65625 -5.320312 102.632812 -8.90625 100.78125 -13.65625 C 87.40625 -2.78125 72.984375 2.65625 57.515625 2.65625 C 44.140625 2.65625 33.628906 -0.6875 25.984375 -7.375 C 22.109375 -10.59375 19.1875 -14.5 17.21875 -19.09375 C 15.25 -23.6875 14.265625 -28.878906 14.265625 -34.671875 C 14.265625 -40.554688 15.367188 -45.796875 17.578125 -50.390625 C 19.796875 -54.984375 23 -58.8125 27.1875 -61.875 C 35.488281 -67.832031 46.726562 -70.8125 60.90625 -70.8125 C 72.101562 -70.8125 83.78125 -69.320312 95.9375 -66.34375 L 95.9375 -72.015625 C 95.9375 -77.972656 94.285156 -82.363281 90.984375 -85.1875 C 87.441406 -88.488281 81.117188 -90.140625 72.015625 -90.140625 C 66.617188 -90.140625 60.921875 -89.453125 54.921875 -88.078125 C 48.921875 -86.710938 43.222656 -84.820312 37.828125 -82.40625 C 36.367188 -81.757812 35.078125 -81.4375 33.953125 -81.4375 C 32.984375 -81.4375 32.015625 -81.679688 31.046875 -82.171875 C 29.035156 -83.210938 27.222656 -85.585938 25.609375 -89.296875 C 24.242188 -92.515625 23.5625 -95.171875 23.5625 -97.265625 C 23.5625 -100.492188 25.09375 -102.832031 28.15625 -104.28125 C 35.238281 -107.582031 42.972656 -110.117188 51.359375 -111.890625 C 59.410156 -113.503906 67.0625 -114.3125 74.3125 -114.3125 C 90.820312 -114.3125 103.023438 -110.566406 110.921875 -103.078125 C 118.410156 -95.898438 122.15625 -85.304688 122.15625 -71.296875 L 122.15625 -32.015625 C 122.15625 -28.796875 122.820312 -26.316406 124.15625 -24.578125 C 125.488281 -22.847656 127.484375 -21.984375 130.140625 -21.984375 Z M 95.9375 -44.46875 C 85.226562 -47.125 74.234375 -48.453125 62.953125 -48.453125 C 56.347656 -48.453125 51.148438 -47.363281 47.359375 -45.1875 C 43.421875 -42.695312 41.453125 -38.953125 41.453125 -33.953125 C 41.453125 -29.441406 43.082031 -26 46.34375 -23.625 C 49.601562 -21.25 54.253906 -20.0625 60.296875 -20.0625 C 72.785156 -20.0625 84.664062 -25.015625 95.9375 -34.921875 Z M 95.9375 -44.46875 "/></g></g><g transform="translate(297.715471, 172.804975)"><g><path d="M 135.453125 -21.984375 C 138.273438 -21.984375 140.207031 -21.300781 141.25 -19.9375 C 142.457031 -18.488281 143.0625 -15.507812 143.0625 -11 C 143.0625 -6.882812 142.582031 -4.0625 141.625 -2.53125 C 141.050781 -1.570312 140.28125 -0.910156 139.3125 -0.546875 C 138.351562 -0.179688 137.066406 0 135.453125 0 L 110.203125 0 C 107.460938 0 105.507812 -0.601562 104.34375 -1.8125 C 103.175781 -3.019531 102.59375 -5.035156 102.59375 -7.859375 L 102.59375 -16.546875 C 98.15625 -10.347656 92.734375 -5.597656 86.328125 -2.296875 C 79.929688 1.003906 72.828125 2.65625 65.015625 2.65625 C 57.359375 2.65625 50.328125 1.304688 43.921875 -1.390625 C 37.515625 -4.085938 31.976562 -7.972656 27.3125 -13.046875 C 22.632812 -18.046875 19.066406 -23.988281 16.609375 -30.875 C 14.148438 -37.757812 12.921875 -45.351562 12.921875 -53.65625 C 12.921875 -61.945312 14.148438 -69.535156 16.609375 -76.421875 C 19.066406 -83.316406 22.632812 -89.257812 27.3125 -94.25 C 31.976562 -99.25 37.492188 -103.097656 43.859375 -105.796875 C 50.222656 -108.492188 57.273438 -109.84375 65.015625 -109.84375 C 78.628906 -109.84375 89.945312 -104.6875 98.96875 -94.375 L 98.96875 -136.546875 L 75.03125 -136.546875 C 73.582031 -136.546875 72.375 -136.707031 71.40625 -137.03125 C 70.445312 -137.351562 69.6875 -137.914062 69.125 -138.71875 C 67.988281 -140.332031 67.421875 -143.269531 67.421875 -147.53125 C 67.421875 -151.726562 67.988281 -154.671875 69.125 -156.359375 C 69.6875 -157.160156 70.429688 -157.722656 71.359375 -158.046875 C 72.285156 -158.367188 73.507812 -158.53125 75.03125 -158.53125 L 117.578125 -158.53125 C 120.316406 -158.53125 122.269531 -157.925781 123.4375 -156.71875 C 124.601562 -155.507812 125.1875 -153.5 125.1875 -150.6875 L 125.1875 -21.984375 Z M 99.5625 -53.65625 C 99.5625 -63.800781 96.582031 -71.773438 90.625 -77.578125 C 84.820312 -82.972656 77.492188 -85.671875 68.640625 -85.671875 C 64.367188 -85.671875 60.539062 -84.945312 57.15625 -83.5 C 53.769531 -82.050781 50.867188 -79.992188 48.453125 -77.328125 C 46.035156 -74.515625 44.160156 -71.09375 42.828125 -67.0625 C 41.503906 -63.03125 40.84375 -58.5625 40.84375 -53.65625 C 40.84375 -44.144531 43.175781 -36.488281 47.84375 -30.6875 C 52.757812 -24.644531 59.691406 -21.625 68.640625 -21.625 C 77.492188 -21.625 84.820312 -24.320312 90.625 -29.71875 C 93.445312 -32.457031 95.640625 -35.84375 97.203125 -39.875 C 98.773438 -43.90625 99.5625 -48.5 99.5625 -53.65625 Z M 99.5625 -53.65625 "/></g></g><g transform="translate(446.096735, 172.804975)"><g><path d="M 89.421875 -140.171875 C 89.421875 -137.265625 88.410156 -135.289062 86.390625 -134.25 C 84.460938 -133.039062 80.878906 -132.4375 75.640625 -132.4375 C 70.722656 -132.4375 67.140625 -133 64.890625 -134.125 C 62.710938 -135.175781 61.625 -137.191406 61.625 -140.171875 L 61.625 -158.65625 C 61.625 -160.1875 61.863281 -161.453125 62.34375 -162.453125 C 62.832031 -163.460938 63.640625 -164.25 64.765625 -164.8125 C 66.617188 -165.78125 70.125 -166.265625 75.28125 -166.265625 C 80.59375 -166.265625 84.257812 -165.742188 86.28125 -164.703125 C 88.375 -163.410156 89.421875 -161.394531 89.421875 -158.65625 Z M 63.203125 -89.65625 L 37.453125 -89.65625 C 36.003906 -89.65625 34.796875 -89.816406 33.828125 -90.140625 C 32.867188 -90.460938 32.101562 -91.023438 31.53125 -91.828125 C 30.40625 -93.609375 29.84375 -96.550781 29.84375 -100.65625 C 29.84375 -104.84375 30.445312 -107.78125 31.65625 -109.46875 C 32.21875 -110.28125 32.960938 -110.847656 33.890625 -111.171875 C 34.816406 -111.492188 36.003906 -111.65625 37.453125 -111.65625 L 81.8125 -111.65625 C 84.539062 -111.65625 86.488281 -111.050781 87.65625 -109.84375 C 88.832031 -108.632812 89.421875 -106.617188 89.421875 -103.796875 L 89.421875 -21.984375 L 124.9375 -21.984375 C 126.394531 -21.984375 127.601562 -21.820312 128.5625 -21.5 C 129.53125 -21.1875 130.296875 -20.625 130.859375 -19.8125 C 131.992188 -18.207031 132.5625 -15.269531 132.5625 -11 C 132.5625 -6.726562 131.992188 -3.785156 130.859375 -2.171875 C 130.296875 -1.367188 129.53125 -0.804688 128.5625 -0.484375 C 127.601562 -0.160156 126.394531 0 124.9375 0 L 28.640625 0 C 27.109375 0 25.878906 -0.160156 24.953125 -0.484375 C 24.023438 -0.804688 23.28125 -1.367188 22.71875 -2.171875 C 21.59375 -3.785156 21.03125 -6.726562 21.03125 -11 C 21.03125 -15.269531 21.632812 -18.25 22.84375 -19.9375 C 23.40625 -20.664062 24.148438 -21.1875 25.078125 -21.5 C 26.003906 -21.820312 27.191406 -21.984375 28.640625 -21.984375 L 63.203125 -21.984375 Z M 63.203125 -89.65625 "/></g></g><g transform="translate(594.477999, 172.804975)"><g><path d="M 101.75 -69.125 C 101.75 -72.019531 101.203125 -74.710938 100.109375 -77.203125 C 99.023438 -79.703125 97.4375 -81.921875 95.34375 -83.859375 C 90.582031 -87.960938 84.132812 -90.015625 76 -90.015625 C 71.164062 -90.015625 66.710938 -89.207031 62.640625 -87.59375 C 58.578125 -85.988281 55.140625 -83.65625 52.328125 -80.59375 C 49.421875 -77.53125 47.179688 -73.882812 45.609375 -69.65625 C 44.046875 -65.425781 43.265625 -60.816406 43.265625 -55.828125 C 43.265625 -50.753906 44.023438 -46.117188 45.546875 -41.921875 C 47.078125 -37.734375 49.253906 -34.109375 52.078125 -31.046875 C 54.898438 -27.992188 58.320312 -25.660156 62.34375 -24.046875 C 66.375 -22.429688 70.804688 -21.625 75.640625 -21.625 C 82.242188 -21.625 88.847656 -22.648438 95.453125 -24.703125 C 102.066406 -26.765625 108.394531 -29.726562 114.4375 -33.59375 C 115.882812 -34.5625 117.332031 -35.046875 118.78125 -35.046875 C 121.84375 -35.046875 124.660156 -32.382812 127.234375 -27.0625 C 128.523438 -24.164062 129.171875 -21.585938 129.171875 -19.328125 C 129.171875 -15.867188 127.597656 -13.210938 124.453125 -11.359375 C 117.285156 -6.929688 109.515625 -3.488281 101.140625 -1.03125 C 92.765625 1.425781 84.265625 2.65625 75.640625 2.65625 C 66.535156 2.65625 58.273438 1.226562 50.859375 -1.625 C 43.453125 -4.488281 37.09375 -8.578125 31.78125 -13.890625 C 26.457031 -19.210938 22.382812 -25.4375 19.5625 -32.5625 C 16.75 -39.695312 15.34375 -47.453125 15.34375 -55.828125 C 15.34375 -64.285156 16.769531 -72.078125 19.625 -79.203125 C 22.488281 -86.335938 26.582031 -92.5625 31.90625 -97.875 C 37.132812 -103.113281 43.273438 -107.160156 50.328125 -110.015625 C 57.378906 -112.878906 65.007812 -114.3125 73.21875 -114.3125 C 86.757812 -114.3125 96.789062 -109.476562 103.3125 -99.8125 L 103.3125 -106.578125 C 103.3125 -109.316406 104.316406 -111.289062 106.328125 -112.5 C 108.347656 -113.707031 111.613281 -114.3125 116.125 -114.3125 C 120.632812 -114.3125 123.734375 -113.75 125.421875 -112.625 C 126.304688 -112.050781 126.929688 -111.28125 127.296875 -110.3125 C 127.660156 -109.351562 127.84375 -108.109375 127.84375 -106.578125 L 127.84375 -69.125 C 127.84375 -66.21875 126.796875 -64.242188 124.703125 -63.203125 C 122.691406 -61.992188 119.1875 -61.390625 114.1875 -61.390625 C 109.351562 -61.390625 106.007812 -62.03125 104.15625 -63.3125 C 103.269531 -63.875 102.644531 -64.617188 102.28125 -65.546875 C 101.925781 -66.472656 101.75 -67.664062 101.75 -69.125 Z M 101.75 -69.125 "/></g></g><g transform="translate(742.859262, 172.804975)"><g><path d="M 134 -21.984375 C 135.457031 -21.984375 136.664062 -21.820312 137.625 -21.5 C 138.59375 -21.1875 139.359375 -20.625 139.921875 -19.8125 C 141.054688 -18.207031 141.625 -15.269531 141.625 -11 C 141.625 -6.726562 141.054688 -3.785156 139.921875 -2.171875 C 139.359375 -1.367188 138.59375 -0.804688 137.625 -0.484375 C 136.664062 -0.160156 135.457031 0 134 0 L 122.40625 0 C 117.65625 0 113.46875 -0.96875 109.84375 -2.90625 C 105.65625 -5.320312 102.632812 -8.90625 100.78125 -13.65625 C 87.40625 -2.78125 72.984375 2.65625 57.515625 2.65625 C 44.140625 2.65625 33.628906 -0.6875 25.984375 -7.375 C 22.109375 -10.59375 19.1875 -14.5 17.21875 -19.09375 C 15.25 -23.6875 14.265625 -28.878906 14.265625 -34.671875 C 14.265625 -40.554688 15.367188 -45.796875 17.578125 -50.390625 C 19.796875 -54.984375 23 -58.8125 27.1875 -61.875 C 35.488281 -67.832031 46.726562 -70.8125 60.90625 -70.8125 C 72.101562 -70.8125 83.78125 -69.320312 95.9375 -66.34375 L 95.9375 -72.015625 C 95.9375 -77.972656 94.285156 -82.363281 90.984375 -85.1875 C 87.441406 -88.488281 81.117188 -90.140625 72.015625 -90.140625 C 66.617188 -90.140625 60.921875 -89.453125 54.921875 -88.078125 C 48.921875 -86.710938 43.222656 -84.820312 37.828125 -82.40625 C 36.367188 -81.757812 35.078125 -81.4375 33.953125 -81.4375 C 32.984375 -81.4375 32.015625 -81.679688 31.046875 -82.171875 C 29.035156 -83.210938 27.222656 -85.585938 25.609375 -89.296875 C 24.242188 -92.515625 23.5625 -95.171875 23.5625 -97.265625 C 23.5625 -100.492188 25.09375 -102.832031 28.15625 -104.28125 C 35.238281 -107.582031 42.972656 -110.117188 51.359375 -111.890625 C 59.410156 -113.503906 67.0625 -114.3125 74.3125 -114.3125 C 90.820312 -114.3125 103.023438 -110.566406 110.921875 -103.078125 C 118.410156 -95.898438 122.15625 -85.304688 122.15625 -71.296875 L 122.15625 -32.015625 C 122.15625 -28.796875 122.820312 -26.316406 124.15625 -24.578125 C 125.488281 -22.847656 127.484375 -21.984375 130.140625 -21.984375 Z M 95.9375 -44.46875 C 85.226562 -47.125 74.234375 -48.453125 62.953125 -48.453125 C 56.347656 -48.453125 51.148438 -47.363281 47.359375 -45.1875 C 43.421875 -42.695312 41.453125 -38.953125 41.453125 -33.953125 C 41.453125 -29.441406 43.082031 -26 46.34375 -23.625 C 49.601562 -21.25 54.253906 -20.0625 60.296875 -20.0625 C 72.785156 -20.0625 84.664062 -25.015625 95.9375 -34.921875 Z M 95.9375 -44.46875 "/></g></g></g><g fill="#2ed573" fill-opacity="1"><g transform="translate(891.240554, 172.804975)"><g><path d="M 61.984375 -136.546875 L 32.265625 -136.546875 C 29.359375 -136.546875 27.34375 -137.3125 26.21875 -138.84375 C 25.175781 -140.445312 24.65625 -143.34375 24.65625 -147.53125 C 24.65625 -151.800781 25.21875 -154.742188 26.34375 -156.359375 C 26.90625 -157.160156 27.671875 -157.722656 28.640625 -158.046875 C 29.609375 -158.367188 30.816406 -158.53125 32.265625 -158.53125 L 80.59375 -158.53125 C 83.332031 -158.53125 85.285156 -157.925781 86.453125 -156.71875 C 87.617188 -155.507812 88.203125 -153.5 88.203125 -150.6875 L 88.203125 -21.984375 L 123.734375 -21.984375 C 125.179688 -21.984375 126.390625 -21.820312 127.359375 -21.5 C 128.328125 -21.1875 129.09375 -20.625 129.65625 -19.8125 C 130.78125 -18.207031 131.34375 -15.269531 131.34375 -11 C 131.34375 -6.726562 130.820312 -3.828125 129.78125 -2.296875 C 129.21875 -1.410156 128.453125 -0.804688 127.484375 -0.484375 C 126.515625 -0.160156 125.265625 0 123.734375 0 L 27.421875 0 C 25.898438 0 24.65625 -0.179688 23.6875 -0.546875 C 22.71875 -0.910156 21.953125 -1.535156 21.390625 -2.421875 C 20.335938 -3.953125 19.8125 -6.8125 19.8125 -11 C 19.8125 -15.269531 20.378906 -18.207031 21.515625 -19.8125 C 22.148438 -20.625 22.929688 -21.1875 23.859375 -21.5 C 24.785156 -21.820312 25.972656 -21.984375 27.421875 -21.984375 L 61.984375 -21.984375 Z M 61.984375 -136.546875 "/></g></g></g></g></g><g fill="#2ed573" fill-opacity="1"><g transform="translate(1225.562178, 269.215263)"><g><path d="M 78.421875 -143.4375 C 88.492188 -143.4375 97.132812 -141.742188 104.34375 -138.359375 C 111.550781 -134.972656 117.023438 -130.21875 120.765625 -124.09375 C 124.515625 -117.96875 126.390625 -110.835938 126.390625 -102.703125 C 126.390625 -93.523438 123.410156 -85.753906 117.453125 -79.390625 C 111.492188 -73.023438 103.316406 -68.675781 92.921875 -66.34375 C 97.429688 -64.570312 101.175781 -61.710938 104.15625 -57.765625 C 106.65625 -54.453125 108.789062 -51.164062 110.5625 -47.90625 C 112.332031 -44.644531 114.304688 -40.640625 116.484375 -35.890625 C 118.742188 -30.972656 120.476562 -27.390625 121.6875 -25.140625 C 124.820312 -19.335938 128.445312 -16.4375 132.5625 -16.4375 L 135.9375 -16.4375 C 138.675781 -16.4375 140.628906 -15.8125 141.796875 -14.5625 C 142.960938 -13.3125 143.546875 -11.195312 143.546875 -8.21875 C 143.546875 -5.238281 142.960938 -3.125 141.796875 -1.875 C 140.628906 -0.625 138.675781 0 135.9375 0 L 127.234375 0 C 122.398438 0 118.3125 -1.265625 114.96875 -3.796875 C 111.625 -6.335938 108.382812 -10.671875 105.25 -16.796875 C 103.476562 -20.335938 101.300781 -25.007812 98.71875 -30.8125 C 96.300781 -36.125 94.347656 -40.25 92.859375 -43.1875 C 91.367188 -46.132812 89.578125 -49.054688 87.484375 -51.953125 C 85.066406 -55.335938 82.164062 -57.894531 78.78125 -59.625 C 75.394531 -61.363281 71.328125 -62.234375 66.578125 -62.234375 L 50.140625 -62.234375 L 50.140625 -16.4375 L 65.859375 -16.4375 C 68.597656 -16.4375 70.550781 -15.8125 71.71875 -14.5625 C 72.882812 -13.3125 73.46875 -11.195312 73.46875 -8.21875 C 73.46875 -5.238281 72.882812 -3.125 71.71875 -1.875 C 70.550781 -0.625 68.597656 0 65.859375 0 L 17.28125 0 C 14.539062 0 12.585938 -0.625 11.421875 -1.875 C 10.253906 -3.125 9.671875 -5.238281 9.671875 -8.21875 C 9.671875 -11.195312 10.253906 -13.3125 11.421875 -14.5625 C 12.585938 -15.8125 14.539062 -16.4375 17.28125 -16.4375 L 32.015625 -16.4375 L 32.015625 -127 L 17.28125 -127 C 14.539062 -127 12.585938 -127.625 11.421875 -128.875 C 10.253906 -130.125 9.671875 -132.238281 9.671875 -135.21875 C 9.671875 -138.195312 10.253906 -140.3125 11.421875 -141.5625 C 12.585938 -142.8125 14.539062 -143.4375 17.28125 -143.4375 Z M 50.140625 -78.65625 L 74.671875 -78.65625 C 96.421875 -78.65625 107.296875 -86.671875 107.296875 -102.703125 C 107.296875 -110.441406 104.554688 -116.425781 99.078125 -120.65625 C 93.609375 -124.882812 85.878906 -127 75.890625 -127 L 50.140625 -127 Z M 50.140625 -78.65625 "/></g></g></g><g fill="#2ed573" fill-opacity="1"><g transform="translate(1371.223096, 269.215263)"><g><path d="M 75.28125 -114.3125 C 86.957031 -114.3125 96.925781 -111.953125 105.1875 -107.234375 C 113.445312 -102.523438 119.789062 -96 124.21875 -87.65625 C 128.644531 -79.320312 131.179688 -69.71875 131.828125 -58.84375 C 131.828125 -56.101562 131.242188 -54.171875 130.078125 -53.046875 C 128.910156 -51.921875 126.957031 -51.359375 124.21875 -51.359375 L 36.734375 -51.359375 C 37.296875 -39.347656 40.859375 -30.257812 47.421875 -24.09375 C 53.992188 -17.9375 63.28125 -14.859375 75.28125 -14.859375 C 82.6875 -14.859375 90.015625 -15.804688 97.265625 -17.703125 C 104.515625 -19.597656 110.878906 -22.113281 116.359375 -25.25 C 117.734375 -25.976562 118.984375 -26.34375 120.109375 -26.34375 C 122.929688 -26.34375 125.226562 -24.207031 127 -19.9375 C 127.71875 -18.25 128.078125 -16.71875 128.078125 -15.34375 C 128.078125 -12.125 126.304688 -9.628906 122.765625 -7.859375 C 116.566406 -4.710938 109.238281 -2.171875 100.78125 -0.234375 C 92.320312 1.691406 83.820312 2.65625 75.28125 2.65625 C 63.113281 2.65625 52.71875 0.320312 44.09375 -4.34375 C 35.476562 -9.019531 28.914062 -15.75 24.40625 -24.53125 C 19.894531 -33.3125 17.640625 -43.742188 17.640625 -55.828125 C 17.640625 -67.347656 20.097656 -77.535156 25.015625 -86.390625 C 29.929688 -95.253906 36.738281 -102.125 45.4375 -107 C 54.132812 -111.875 64.082031 -114.3125 75.28125 -114.3125 Z M 75.28125 -96.78125 C 65.375 -96.78125 57.175781 -94.265625 50.6875 -89.234375 C 44.207031 -84.203125 39.957031 -77.210938 37.9375 -68.265625 L 111.765625 -68.265625 C 110.078125 -77.535156 106.191406 -84.601562 100.109375 -89.46875 C 94.023438 -94.34375 85.75 -96.78125 75.28125 -96.78125 Z M 75.28125 -96.78125 "/></g></g></g><g fill="#2ed573" fill-opacity="1"><g transform="translate(1516.884013, 269.215263)"><g><path d="M 117.6875 -114.3125 C 120.988281 -114.3125 123.320312 -113.707031 124.6875 -112.5 C 126.0625 -111.289062 126.75 -109.273438 126.75 -106.453125 L 126.75 -71.40625 C 126.75 -68.59375 126.0625 -66.582031 124.6875 -65.375 C 123.320312 -64.164062 120.988281 -63.5625 117.6875 -63.5625 C 114.382812 -63.5625 112.046875 -64.164062 110.671875 -65.375 C 109.304688 -66.582031 108.625 -68.59375 108.625 -71.40625 C 108.625 -76.320312 107.332031 -80.671875 104.75 -84.453125 C 102.175781 -88.242188 98.332031 -91.1875 93.21875 -93.28125 C 88.101562 -95.375 81.960938 -96.421875 74.796875 -96.421875 C 67.066406 -96.421875 60.140625 -94.6875 54.015625 -91.21875 C 47.890625 -87.757812 43.09375 -82.925781 39.625 -76.71875 C 36.164062 -70.519531 34.4375 -63.554688 34.4375 -55.828125 C 34.4375 -48.015625 36.066406 -41.023438 39.328125 -34.859375 C 42.585938 -28.691406 47.175781 -23.875 53.09375 -20.40625 C 59.019531 -16.945312 65.851562 -15.21875 73.59375 -15.21875 C 81 -15.21875 88.1875 -16.363281 95.15625 -18.65625 C 102.125 -20.957031 108.46875 -24.285156 114.1875 -28.640625 C 115.875 -29.929688 117.445312 -30.578125 118.90625 -30.578125 C 121.238281 -30.578125 123.410156 -28.921875 125.421875 -25.609375 C 126.628906 -23.597656 127.234375 -21.664062 127.234375 -19.8125 C 127.234375 -17 125.945312 -14.664062 123.375 -12.8125 C 116.925781 -7.976562 109.3125 -4.191406 100.53125 -1.453125 C 91.75 1.285156 82.769531 2.65625 73.59375 2.65625 C 62.070312 2.65625 51.898438 0.117188 43.078125 -4.953125 C 34.253906 -10.023438 27.425781 -16.992188 22.59375 -25.859375 C 17.757812 -34.722656 15.34375 -44.710938 15.34375 -55.828125 C 15.34375 -66.941406 17.800781 -76.925781 22.71875 -85.78125 C 27.632812 -94.644531 34.5 -101.613281 43.3125 -106.6875 C 52.132812 -111.769531 62.226562 -114.3125 73.59375 -114.3125 C 80.757812 -114.3125 87.34375 -113 93.34375 -110.375 C 99.34375 -107.757812 104.4375 -104.035156 108.625 -99.203125 L 108.625 -106.453125 C 108.625 -109.273438 109.304688 -111.289062 110.671875 -112.5 C 112.046875 -113.707031 114.382812 -114.3125 117.6875 -114.3125 Z M 117.6875 -114.3125 "/></g></g></g><g fill="#2ed573" fill-opacity="1"><g transform="translate(1662.544931, 269.215263)"><g><path d="M 111.171875 -114.3125 C 117.453125 -114.3125 123.332031 -112.695312 128.8125 -109.46875 C 132.03125 -107.539062 133.640625 -105.046875 133.640625 -101.984375 C 133.640625 -100.535156 133.28125 -98.84375 132.5625 -96.90625 C 130.863281 -92.3125 128.523438 -90.015625 125.546875 -90.015625 C 124.335938 -90.015625 123.207031 -90.335938 122.15625 -90.984375 C 118.21875 -93.160156 113.988281 -94.25 109.46875 -94.25 C 102.21875 -94.25 94.925781 -91.726562 87.59375 -86.6875 C 80.269531 -81.65625 74.25 -74.953125 69.53125 -66.578125 C 64.820312 -58.203125 62.46875 -49.300781 62.46875 -39.875 L 62.46875 -16.4375 L 103.1875 -16.4375 C 105.925781 -16.4375 107.878906 -15.8125 109.046875 -14.5625 C 110.222656 -13.3125 110.8125 -11.195312 110.8125 -8.21875 C 110.8125 -5.238281 110.222656 -3.125 109.046875 -1.875 C 107.878906 -0.625 105.925781 0 103.1875 0 L 25.375 0 C 22.632812 0 20.679688 -0.625 19.515625 -1.875 C 18.347656 -3.125 17.765625 -5.238281 17.765625 -8.21875 C 17.765625 -11.195312 18.347656 -13.3125 19.515625 -14.5625 C 20.679688 -15.8125 22.632812 -16.4375 25.375 -16.4375 L 44.34375 -16.4375 L 44.34375 -95.21875 L 29 -95.21875 C 26.257812 -95.21875 24.304688 -95.84375 23.140625 -97.09375 C 21.972656 -98.34375 21.390625 -100.457031 21.390625 -103.4375 C 21.390625 -106.414062 21.972656 -108.53125 23.140625 -109.78125 C 24.304688 -111.03125 26.257812 -111.65625 29 -111.65625 L 53.65625 -111.65625 C 56.394531 -111.65625 58.347656 -111.03125 59.515625 -109.78125 C 60.679688 -108.53125 61.265625 -106.414062 61.265625 -103.4375 L 61.265625 -79.03125 C 65.128906 -86.113281 69.800781 -92.3125 75.28125 -97.625 C 80.757812 -102.945312 86.597656 -107.054688 92.796875 -109.953125 C 99.003906 -112.859375 105.128906 -114.3125 111.171875 -114.3125 Z M 111.171875 -114.3125 "/></g></g></g><g fill="#2ed573" fill-opacity="1"><g transform="translate(1808.205848, 269.215263)"><g><path d="M 113.09375 -111.65625 C 115.832031 -111.65625 117.785156 -111.03125 118.953125 -109.78125 C 120.128906 -108.53125 120.71875 -106.414062 120.71875 -103.4375 L 120.71875 -16.4375 L 130.625 -16.4375 C 133.363281 -16.4375 135.316406 -15.8125 136.484375 -14.5625 C 137.648438 -13.3125 138.234375 -11.195312 138.234375 -8.21875 C 138.234375 -5.238281 137.648438 -3.125 136.484375 -1.875 C 135.316406 -0.625 133.363281 0 130.625 0 L 111.40625 0 C 108.664062 0 106.710938 -0.601562 105.546875 -1.8125 C 104.378906 -3.019531 103.796875 -5.113281 103.796875 -8.09375 L 103.796875 -22.71875 C 98.484375 -14.5 92.257812 -8.210938 85.125 -3.859375 C 78 0.484375 70.328125 2.65625 62.109375 2.65625 C 54.773438 2.65625 48.410156 1.066406 43.015625 -2.109375 C 37.617188 -5.296875 33.46875 -9.867188 30.5625 -15.828125 C 27.664062 -21.785156 26.21875 -28.753906 26.21875 -36.734375 L 26.21875 -95.21875 L 16.3125 -95.21875 C 13.570312 -95.21875 11.617188 -95.84375 10.453125 -97.09375 C 9.285156 -98.34375 8.703125 -100.457031 8.703125 -103.4375 C 8.703125 -106.414062 9.285156 -108.53125 10.453125 -109.78125 C 11.617188 -111.03125 13.570312 -111.65625 16.3125 -111.65625 L 36.734375 -111.65625 C 39.472656 -111.65625 41.425781 -111.03125 42.59375 -109.78125 C 43.757812 -108.53125 44.34375 -106.414062 44.34375 -103.4375 L 44.34375 -38.546875 C 44.34375 -31.378906 45.992188 -25.695312 49.296875 -21.5 C 52.597656 -17.3125 57.472656 -15.21875 63.921875 -15.21875 C 70.765625 -15.21875 77.144531 -17.191406 83.0625 -21.140625 C 88.988281 -25.085938 93.722656 -30.523438 97.265625 -37.453125 C 100.816406 -44.378906 102.59375 -52.113281 102.59375 -60.65625 L 102.59375 -95.21875 L 85.4375 -95.21875 C 82.695312 -95.21875 80.738281 -95.84375 79.5625 -97.09375 C 78.394531 -98.34375 77.8125 -100.457031 77.8125 -103.4375 C 77.8125 -106.414062 78.394531 -108.53125 79.5625 -109.78125 C 80.738281 -111.03125 82.695312 -111.65625 85.4375 -111.65625 Z M 113.09375 -111.65625 "/></g></g></g><g fill="#2ed573" fill-opacity="1"><g transform="translate(1953.866766, 269.215263)"><g><path d="M 78.546875 -111.65625 C 81.285156 -111.65625 83.238281 -111.03125 84.40625 -109.78125 C 85.570312 -108.53125 86.15625 -106.414062 86.15625 -103.4375 L 86.15625 -16.4375 L 124.9375 -16.4375 C 127.675781 -16.4375 129.628906 -15.8125 130.796875 -14.5625 C 131.972656 -13.3125 132.5625 -11.195312 132.5625 -8.21875 C 132.5625 -5.238281 131.972656 -3.125 130.796875 -1.875 C 129.628906 -0.625 127.675781 0 124.9375 0 L 30.203125 0 C 27.460938 0 25.507812 -0.625 24.34375 -1.875 C 23.175781 -3.125 22.59375 -5.238281 22.59375 -8.21875 C 22.59375 -11.195312 23.175781 -13.3125 24.34375 -14.5625 C 25.507812 -15.8125 27.460938 -16.4375 30.203125 -16.4375 L 68.03125 -16.4375 L 68.03125 -95.21875 L 37.453125 -95.21875 C 34.710938 -95.21875 32.757812 -95.84375 31.59375 -97.09375 C 30.425781 -98.34375 29.84375 -100.457031 29.84375 -103.4375 C 29.84375 -106.414062 30.425781 -108.53125 31.59375 -109.78125 C 32.757812 -111.03125 34.710938 -111.65625 37.453125 -111.65625 Z M 74.671875 -164.703125 C 79.109375 -164.703125 82.128906 -164.113281 83.734375 -162.9375 C 85.347656 -161.769531 86.15625 -159.738281 86.15625 -156.84375 L 86.15625 -141.140625 C 86.15625 -138.234375 85.347656 -136.195312 83.734375 -135.03125 C 82.128906 -133.863281 79.109375 -133.28125 74.671875 -133.28125 C 70.242188 -133.28125 67.222656 -133.863281 65.609375 -135.03125 C 64.003906 -136.195312 63.203125 -138.234375 63.203125 -141.140625 L 63.203125 -156.84375 C 63.203125 -159.738281 64.003906 -161.769531 65.609375 -162.9375 C 67.222656 -164.113281 70.242188 -164.703125 74.671875 -164.703125 Z M 74.671875 -164.703125 "/></g></g></g><g fill="#2ed573" fill-opacity="1"><g transform="translate(2099.527683, 269.215263)"><g><path d="M 55.34375 -146.09375 C 58.644531 -146.09375 60.976562 -145.488281 62.34375 -144.28125 C 63.71875 -143.070312 64.40625 -141.054688 64.40625 -138.234375 L 64.40625 -101.984375 L 114.0625 -101.984375 C 116.800781 -101.984375 118.753906 -101.359375 119.921875 -100.109375 C 121.097656 -98.859375 121.6875 -96.742188 121.6875 -93.765625 C 121.6875 -90.785156 121.097656 -88.671875 119.921875 -87.421875 C 118.753906 -86.171875 116.800781 -85.546875 114.0625 -85.546875 L 64.40625 -85.546875 L 64.40625 -41.5625 C 64.40625 -32.382812 65.992188 -25.660156 69.171875 -21.390625 C 72.359375 -17.117188 77.898438 -14.984375 85.796875 -14.984375 C 91.191406 -14.984375 96.867188 -16.070312 102.828125 -18.25 C 108.785156 -20.425781 114.546875 -23.328125 120.109375 -26.953125 C 121.234375 -27.753906 122.484375 -28.15625 123.859375 -28.15625 C 126.597656 -28.15625 128.929688 -26.300781 130.859375 -22.59375 C 131.910156 -20.5 132.4375 -18.6875 132.4375 -17.15625 C 132.4375 -14.582031 131.109375 -12.488281 128.453125 -10.875 C 122.160156 -6.925781 115.148438 -3.679688 107.421875 -1.140625 C 99.691406 1.390625 92.484375 2.65625 85.796875 2.65625 C 72.097656 2.65625 62.085938 -0.90625 55.765625 -8.03125 C 49.441406 -15.164062 46.28125 -25.820312 46.28125 -40 L 46.28125 -85.546875 L 21.75 -85.546875 C 19.007812 -85.546875 17.054688 -86.171875 15.890625 -87.421875 C 14.722656 -88.671875 14.140625 -90.785156 14.140625 -93.765625 C 14.140625 -96.742188 14.722656 -98.859375 15.890625 -100.109375 C 17.054688 -101.359375 19.007812 -101.984375 21.75 -101.984375 L 46.28125 -101.984375 L 46.28125 -138.234375 C 46.28125 -141.054688 46.960938 -143.070312 48.328125 -144.28125 C 49.703125 -145.488281 52.039062 -146.09375 55.34375 -146.09375 Z M 55.34375 -146.09375 "/></g></g></g><g fill="#2ed573" fill-opacity="1"><g transform="translate(2245.188601, 269.215263)"><g><path d="M 143.90625 -16.4375 C 146.644531 -16.4375 148.597656 -15.8125 149.765625 -14.5625 C 150.941406 -13.3125 151.53125 -11.195312 151.53125 -8.21875 C 151.53125 -5.238281 150.941406 -3.125 149.765625 -1.875 C 148.597656 -0.625 146.644531 0 143.90625 0 L 125.90625 0 C 123.164062 0 121.210938 -0.625 120.046875 -1.875 C 118.878906 -3.125 118.296875 -5.238281 118.296875 -8.21875 L 118.296875 -79.75 C 118.296875 -85.3125 117.390625 -89.476562 115.578125 -92.25 C 113.765625 -95.03125 110.84375 -96.421875 106.8125 -96.421875 C 103.03125 -96.421875 99.523438 -94.664062 96.296875 -91.15625 C 93.078125 -87.65625 90.519531 -82.785156 88.625 -76.546875 C 86.738281 -70.304688 85.796875 -63.195312 85.796875 -55.21875 L 85.796875 -16.4375 L 92.6875 -16.4375 C 95.414062 -16.4375 97.363281 -15.8125 98.53125 -14.5625 C 99.707031 -13.3125 100.296875 -11.195312 100.296875 -8.21875 C 100.296875 -5.238281 99.707031 -3.125 98.53125 -1.875 C 97.363281 -0.625 95.414062 0 92.6875 0 L 75.28125 0 C 72.539062 0 70.585938 -0.625 69.421875 -1.875 C 68.253906 -3.125 67.671875 -5.238281 67.671875 -8.21875 L 67.671875 -79.75 C 67.671875 -85.3125 66.765625 -89.476562 64.953125 -92.25 C 63.140625 -95.03125 60.21875 -96.421875 56.1875 -96.421875 C 52.40625 -96.421875 48.898438 -94.664062 45.671875 -91.15625 C 42.453125 -87.65625 39.894531 -82.785156 38 -76.546875 C 36.101562 -70.304688 35.15625 -63.195312 35.15625 -55.21875 L 35.15625 -16.4375 L 41.453125 -16.4375 C 44.179688 -16.4375 46.128906 -15.8125 47.296875 -14.5625 C 48.472656 -13.3125 49.0625 -11.195312 49.0625 -8.21875 C 49.0625 -5.238281 48.472656 -3.125 47.296875 -1.875 C 46.128906 -0.625 44.179688 0 41.453125 0 L 7.125 0 C 4.382812 0 2.429688 -0.625 1.265625 -1.875 C 0.0976562 -3.125 -0.484375 -5.238281 -0.484375 -8.21875 C -0.484375 -11.195312 0.0976562 -13.3125 1.265625 -14.5625 C 2.429688 -15.8125 4.382812 -16.4375 7.125 -16.4375 L 17.03125 -16.4375 L 17.03125 -95.21875 L 7.125 -95.21875 C 4.382812 -95.21875 2.429688 -95.84375 1.265625 -97.09375 C 0.0976562 -98.34375 -0.484375 -100.457031 -0.484375 -103.4375 C -0.484375 -106.414062 0.0976562 -108.53125 1.265625 -109.78125 C 2.429688 -111.03125 4.382812 -111.65625 7.125 -111.65625 L 25.140625 -111.65625 C 27.867188 -111.65625 29.816406 -111.03125 30.984375 -109.78125 C 32.160156 -108.53125 32.75 -106.414062 32.75 -103.4375 L 32.75 -91.46875 C 36.207031 -99.039062 40.351562 -104.738281 45.1875 -108.5625 C 50.019531 -112.394531 55.257812 -114.3125 60.90625 -114.3125 C 66.382812 -114.3125 71.175781 -112.457031 75.28125 -108.75 C 79.382812 -105.039062 82.164062 -99.601562 83.625 -92.4375 C 90.789062 -107.019531 100.050781 -114.3125 111.40625 -114.3125 C 116.15625 -114.3125 120.40625 -113.125 124.15625 -110.75 C 127.90625 -108.375 130.882812 -104.75 133.09375 -99.875 C 135.3125 -95 136.421875 -89.015625 136.421875 -81.921875 L 136.421875 -16.4375 Z M 143.90625 -16.4375 "/></g></g></g><g fill="#2ed573" fill-opacity="1"><g transform="translate(2390.849518, 269.215263)"><g><path d="M 75.28125 -114.3125 C 86.957031 -114.3125 96.925781 -111.953125 105.1875 -107.234375 C 113.445312 -102.523438 119.789062 -96 124.21875 -87.65625 C 128.644531 -79.320312 131.179688 -69.71875 131.828125 -58.84375 C 131.828125 -56.101562 131.242188 -54.171875 130.078125 -53.046875 C 128.910156 -51.921875 126.957031 -51.359375 124.21875 -51.359375 L 36.734375 -51.359375 C 37.296875 -39.347656 40.859375 -30.257812 47.421875 -24.09375 C 53.992188 -17.9375 63.28125 -14.859375 75.28125 -14.859375 C 82.6875 -14.859375 90.015625 -15.804688 97.265625 -17.703125 C 104.515625 -19.597656 110.878906 -22.113281 116.359375 -25.25 C 117.734375 -25.976562 118.984375 -26.34375 120.109375 -26.34375 C 122.929688 -26.34375 125.226562 -24.207031 127 -19.9375 C 127.71875 -18.25 128.078125 -16.71875 128.078125 -15.34375 C 128.078125 -12.125 126.304688 -9.628906 122.765625 -7.859375 C 116.566406 -4.710938 109.238281 -2.171875 100.78125 -0.234375 C 92.320312 1.691406 83.820312 2.65625 75.28125 2.65625 C 63.113281 2.65625 52.71875 0.320312 44.09375 -4.34375 C 35.476562 -9.019531 28.914062 -15.75 24.40625 -24.53125 C 19.894531 -33.3125 17.640625 -43.742188 17.640625 -55.828125 C 17.640625 -67.347656 20.097656 -77.535156 25.015625 -86.390625 C 29.929688 -95.253906 36.738281 -102.125 45.4375 -107 C 54.132812 -111.875 64.082031 -114.3125 75.28125 -114.3125 Z M 75.28125 -96.78125 C 65.375 -96.78125 57.175781 -94.265625 50.6875 -89.234375 C 44.207031 -84.203125 39.957031 -77.210938 37.9375 -68.265625 L 111.765625 -68.265625 C 110.078125 -77.535156 106.191406 -84.601562 100.109375 -89.46875 C 94.023438 -94.34375 85.75 -96.78125 75.28125 -96.78125 Z M 75.28125 -96.78125 "/></g></g></g><g fill="#2ed573" fill-opacity="1"><g transform="translate(2536.510436, 269.215263)"><g><path d="M 87.84375 -114.3125 C 95.175781 -114.3125 101.539062 -112.71875 106.9375 -109.53125 C 112.332031 -106.351562 116.476562 -101.78125 119.375 -95.8125 C 122.28125 -89.851562 123.734375 -82.890625 123.734375 -74.921875 L 123.734375 -16.4375 L 133.640625 -16.4375 C 136.378906 -16.4375 138.332031 -15.8125 139.5 -14.5625 C 140.664062 -13.3125 141.25 -11.195312 141.25 -8.21875 C 141.25 -5.238281 140.664062 -3.125 139.5 -1.875 C 138.332031 -0.625 136.378906 0 133.640625 0 L 94.5 0 C 91.757812 0 89.800781 -0.625 88.625 -1.875 C 87.457031 -3.125 86.875 -5.238281 86.875 -8.21875 C 86.875 -11.195312 87.457031 -13.3125 88.625 -14.5625 C 89.800781 -15.8125 91.757812 -16.4375 94.5 -16.4375 L 105.609375 -16.4375 L 105.609375 -73.109375 C 105.609375 -80.273438 103.957031 -85.953125 100.65625 -90.140625 C 97.351562 -94.328125 92.476562 -96.421875 86.03125 -96.421875 C 79.1875 -96.421875 72.800781 -94.445312 66.875 -90.5 C 60.957031 -86.550781 56.222656 -81.113281 52.671875 -74.1875 C 49.128906 -67.257812 47.359375 -59.523438 47.359375 -50.984375 L 47.359375 -16.4375 L 58.484375 -16.4375 C 61.222656 -16.4375 63.175781 -15.8125 64.34375 -14.5625 C 65.507812 -13.3125 66.09375 -11.195312 66.09375 -8.21875 C 66.09375 -5.238281 65.507812 -3.125 64.34375 -1.875 C 63.175781 -0.625 61.222656 0 58.484375 0 L 19.328125 0 C 16.585938 0 14.632812 -0.625 13.46875 -1.875 C 12.300781 -3.125 11.71875 -5.238281 11.71875 -8.21875 C 11.71875 -11.195312 12.300781 -13.3125 13.46875 -14.5625 C 14.632812 -15.8125 16.585938 -16.4375 19.328125 -16.4375 L 29.234375 -16.4375 L 29.234375 -95.21875 L 16.921875 -95.21875 C 14.179688 -95.21875 12.222656 -95.84375 11.046875 -97.09375 C 9.878906 -98.34375 9.296875 -100.457031 9.296875 -103.4375 C 9.296875 -106.414062 9.878906 -108.53125 11.046875 -109.78125 C 12.222656 -111.03125 14.179688 -111.65625 16.921875 -111.65625 L 38.546875 -111.65625 C 41.285156 -111.65625 43.238281 -111.03125 44.40625 -109.78125 C 45.570312 -108.53125 46.15625 -106.414062 46.15625 -103.4375 L 46.15625 -88.9375 C 51.476562 -97.15625 57.703125 -103.4375 64.828125 -107.78125 C 71.953125 -112.132812 79.625 -114.3125 87.84375 -114.3125 Z M 87.84375 -114.3125 "/></g></g></g><g fill="#2ed573" fill-opacity="1"><g transform="translate(2682.171353, 269.215263)"><g><path d="M 55.34375 -146.09375 C 58.644531 -146.09375 60.976562 -145.488281 62.34375 -144.28125 C 63.71875 -143.070312 64.40625 -141.054688 64.40625 -138.234375 L 64.40625 -101.984375 L 114.0625 -101.984375 C 116.800781 -101.984375 118.753906 -101.359375 119.921875 -100.109375 C 121.097656 -98.859375 121.6875 -96.742188 121.6875 -93.765625 C 121.6875 -90.785156 121.097656 -88.671875 119.921875 -87.421875 C 118.753906 -86.171875 116.800781 -85.546875 114.0625 -85.546875 L 64.40625 -85.546875 L 64.40625 -41.5625 C 64.40625 -32.382812 65.992188 -25.660156 69.171875 -21.390625 C 72.359375 -17.117188 77.898438 -14.984375 85.796875 -14.984375 C 91.191406 -14.984375 96.867188 -16.070312 102.828125 -18.25 C 108.785156 -20.425781 114.546875 -23.328125 120.109375 -26.953125 C 121.234375 -27.753906 122.484375 -28.15625 123.859375 -28.15625 C 126.597656 -28.15625 128.929688 -26.300781 130.859375 -22.59375 C 131.910156 -20.5 132.4375 -18.6875 132.4375 -17.15625 C 132.4375 -14.582031 131.109375 -12.488281 128.453125 -10.875 C 122.160156 -6.925781 115.148438 -3.679688 107.421875 -1.140625 C 99.691406 1.390625 92.484375 2.65625 85.796875 2.65625 C 72.097656 2.65625 62.085938 -0.90625 55.765625 -8.03125 C 49.441406 -15.164062 46.28125 -25.820312 46.28125 -40 L 46.28125 -85.546875 L 21.75 -85.546875 C 19.007812 -85.546875 17.054688 -86.171875 15.890625 -87.421875 C 14.722656 -88.671875 14.140625 -90.785156 14.140625 -93.765625 C 14.140625 -96.742188 14.722656 -98.859375 15.890625 -100.109375 C 17.054688 -101.359375 19.007812 -101.984375 21.75 -101.984375 L 46.28125 -101.984375 L 46.28125 -138.234375 C 46.28125 -141.054688 46.960938 -143.070312 48.328125 -144.28125 C 49.703125 -145.488281 52.039062 -146.09375 55.34375 -146.09375 Z M 55.34375 -146.09375 "/></g></g></g></svg>